<?xml version="1.0" standalone="no"?>
<!DOCTYPE svg PUBLIC "-//W3C//DTD SVG 20010904//EN"
 "http://www.w3.org/TR/2001/REC-SVG-20010904/DTD/svg10.dtd">
<svg version="1.0" xmlns="http://www.w3.org/2000/svg"
 width="50px" height="39px" viewBox="0 0 64.000000 64.000000"
 preserveAspectRatio="xMidYMid meet">

<g transform="translate(0.000000,64.000000) scale(0.100000,-0.100000)"
fill="#000000" stroke="none">
<path d="M466 525 c-11 -8 -28 -15 -37 -15 -26 0 -80 -49 -95 -87 -8 -18 -19
-33 -24 -33 -18 0 -11 67 10 93 26 32 25 47 0 47 -49 0 -108 -52 -125 -110 -4
-14 -26 -56 -48 -95 -33 -54 -42 -79 -41 -113 1 -23 7 -48 14 -55 10 -10 11
-3 6 33 -5 38 -2 53 19 90 14 25 39 74 56 110 33 69 65 110 85 110 10 0 11 -7
3 -29 -6 -16 -9 -44 -7 -63 2 -27 -2 -36 -24 -50 -30 -19 -36 -39 -15 -56 16
-13 57 11 57 32 0 8 7 19 16 27 8 7 26 33 39 59 22 44 44 61 95 76 23 6 22 4
-13 -35 -38 -42 -47 -77 -25 -99 17 -17 58 -15 80 5 16 14 18 14 18 0 0 -8
-14 -26 -31 -39 -62 -47 -80 -68 -77 -91 2 -16 11 -23 30 -25 l28 -3 -25 -49
c-34 -68 -66 -90 -129 -90 -90 0 -143 53 -120 119 10 28 38 44 103 59 l43 10
-5 -44 c-5 -49 -30 -84 -59 -84 -24 0 -34 27 -19 51 13 21 2 26 -17 7 -16 -16
-15 -53 2 -67 26 -22 69 -9 93 28 18 26 23 48 23 94 0 57 -1 59 -18 44 -10 -9
-43 -21 -73 -27 -88 -16 -122 -77 -84 -149 31 -61 151 -82 216 -38 32 22 85
109 91 152 3 20 1 20 -44 8 -25 -7 -22 14 5 37 73 64 87 80 87 102 0 46 -15
52 -49 18 -26 -26 -34 -30 -46 -20 -24 20 -18 40 25 86 52 57 56 107 6 69z
m-186 -195 c0 -5 -7 -10 -16 -10 -8 0 -12 5 -9 10 3 6 10 10 16 10 5 0 9 -4 9
-10z"/>
</g>
</svg>
